# xmcd
#
# Track frame offsets:
#	150
#	13557
#	28597
#	43520
#	61950
#	82507
#	96020
#	113207
#	124770
#	138517
#	152040
#	171010
#	184142
#	202310
#	215332
#	229260
#
# Disc length: 3263 seconds
#
# Revision: 1
# Processed by: cddbd v1.5.2PL0 Copyright (c) Steve Scherf et al.
# Submitted via: EasyCDDAExtractor 16.0.9.1
#
DISCID=d20cbd10
DTITLE=蔡琴 - 珍藏蔡琴 - Disc 1
DYEAR=1900
DGENRE=Vocal
TTITLE0=情人的眼淚
TTITLE1=不了情
TTITLE2=問白雲
TTITLE3=明日之歌
TTITLE4=初戀女
TTITLE5=魂牽舊夢
TTITLE6=懷念
TTITLE7=夢裡相思
TTITLE8=戀痕
TTITLE9=庭院深深
TTITLE10=意難忘
TTITLE11=愿嫁漢家郎
TTITLE12=飄零的落花
TTITLE13=情人山
TTITLE14=送別
TTITLE15=塵緣
EXTD=Extracted By Zhudong With Easy CD-DA Extractor. Enjoy!\n
EXTT0=
EXTT1=
EXTT2=
EXTT3=
EXTT4=
EXTT5=
EXTT6=
EXTT7=
EXTT8=
EXTT9=
EXTT10=
EXTT11=
EXTT12=
EXTT13=
EXTT14=
EXTT15=
PLAYORDER=
